<?xml version="1.0" encoding="UTF-8"?>
<!DOCTYPE svg PUBLIC "-//W3C//DTD SVG 1.1//EN" "http://www.w3.org/Graphics/SVG/1.1/DTD/svg11.dtd">
<!-- Creator: CorelDRAW X7 -->
<svg xmlns="http://www.w3.org/2000/svg" xml:space="preserve" width="45.8387mm" height="12.2771mm" version="1.1" style="shape-rendering:geometricPrecision; text-rendering:geometricPrecision; image-rendering:optimizeQuality; fill-rule:evenodd; clip-rule:evenodd"
viewBox="0 0 14483 3879"
 xmlns:xlink="http://www.w3.org/1999/xlink">
 <defs>
  <style type="text/css">
   <![CDATA[
    .fil0 {fill:white;fill-rule:nonzero}
   ]]>
  </style>
 </defs>
 <g id="Слой_x0020_1">
  <metadata id="CorelCorpID_0Corel-Layer"/>
  <path class="fil0" d="M1840 3870l0 -18c50,-5 53,-9 52,-73l-2 -243 -3 0 -151 330 -13 0 -140 -322 -1 0 -9 171c-3,50 -3,75 -2,99 2,29 16,33 57,37l0 19 -145 0 0 -19c35,-3 47,-12 52,-36 4,-21 7,-47 12,-112l9 -122c6,-79 2,-82 -53,-87l0 -19 105 0 141 298 142 -298 109 0 0 19c-54,4 -58,6 -56,67l6 218c2,64 4,68 57,73l0 18 -167 0z"/>
  <path class="fil0" d="M2504 3771c-4,23 -16,79 -21,99l-305 0 0 -18c56,-4 62,-10 62,-59l0 -238c0,-55 -6,-57 -54,-61l0 -18 281 0c1,15 4,56 6,89l-19 3c-6,-25 -12,-39 -20,-53 -10,-13 -26,-17 -69,-17l-46 0c-20,0 -22,2 -22,20l0 136 57 0c56,0 60,-5 68,-46l18 0 0 119 -18 0c-9,-45 -14,-48 -68,-48l-57 0 0 111c0,29 4,43 15,50 12,7 35,7 64,7 45,0 63,-4 78,-20 10,-13 22,-34 31,-58l19 2z"/>
  <path class="fil0" d="M2788 3788c0,48 21,59 67,59 116,0 171,-84 171,-180 0,-62 -24,-114 -70,-142 -29,-19 -66,-28 -110,-28 -28,0 -43,4 -50,8 -6,4 -8,12 -8,35l0 248zm72 -312c80,0 140,16 178,51 31,30 54,74 54,131 0,72 -30,126 -78,161 -48,35 -111,51 -188,51l-154 0 0 -18c53,-4 58,-7 58,-59l0 -240c0,-53 -5,-55 -53,-59l0 -18 183 0z"/>
  <path class="fil0" d="M3794 3570c-11,-38 -30,-82 -82,-82 -46,0 -68,32 -68,65 0,43 28,64 79,88 52,26 107,55 107,121 0,65 -55,117 -140,117 -26,0 -46,-4 -62,-10 -16,-5 -24,-10 -31,-13 -4,-12 -13,-67 -17,-96l19 -6c10,39 41,102 104,102 45,0 72,-27 72,-71 0,-44 -34,-65 -81,-89 -43,-22 -102,-52 -102,-119 0,-60 49,-111 130,-111 29,0 57,7 80,15 3,21 5,46 11,86l-19 3z"/>
  <path class="fil0" d="M4116 3679c8,3 25,8 45,8 38,0 87,-21 87,-98 0,-66 -42,-93 -91,-93 -17,0 -30,3 -34,7 -4,4 -7,11 -7,28l0 148zm51 -203c45,0 80,7 105,25 25,18 41,46 41,86 0,79 -61,117 -121,124 -10,2 -23,2 -29,1l-47 -11 0 92c0,52 6,55 62,59l0 18 -173 0 0 -18c49,-4 55,-9 55,-59l0 -240c0,-54 -6,-56 -52,-59l0 -18 159 0z"/>
  <path class="fil0" d="M4622 3550l-1 0c-20,50 -39,102 -58,151l114 0 -55 -151zm61 320l0 -18c39,-5 44,-11 36,-35 -9,-24 -20,-54 -33,-89l-133 0c-11,28 -19,51 -27,75 -13,37 -8,44 39,49l0 18 -137 0 0 -18c40,-6 49,-10 71,-64l130 -316 21 -6c40,108 80,215 121,322 20,53 29,60 69,64l0 18 -157 0z"/>
  <path class="fil0" d="M6326 3792c0,45 12,56 51,56 49,-1 93,-26 93,-88 0,-61 -42,-89 -118,-89l-26 0 0 121zm27 -142c67,0 96,-26 96,-76 0,-44 -25,-78 -81,-78 -15,0 -29,3 -35,7 -5,4 -7,11 -7,30l0 117 27 0zm72 8c63,8 112,35 112,96 0,40 -23,72 -59,92 -32,17 -75,24 -124,24l-142 0 0 -18c53,-4 57,-8 57,-59l0 -240c0,-52 -3,-56 -52,-59l0 -18 164 0c47,0 74,7 95,21 22,14 35,41 35,69 0,57 -50,81 -86,90l0 2z"/>
  <path class="fil0" d="M7037 3771c-4,23 -16,79 -22,99l-304 0 0 -18c56,-4 62,-10 62,-59l0 -238c0,-55 -6,-57 -54,-61l0 -18 281 0c1,15 3,56 6,89l-19 3c-6,-25 -13,-39 -20,-53 -10,-13 -27,-17 -69,-17l-46 0c-21,0 -22,2 -22,20l0 136 57 0c55,0 60,-5 67,-46l19 0 0 119 -19 0c-8,-45 -13,-48 -67,-48l-57 0 0 111c0,29 4,43 15,50 12,7 35,7 63,7 46,0 64,-4 78,-20 11,-13 23,-34 32,-58l19 2z"/>
  <path class="fil0" d="M7391 3550l-1 0c-20,50 -39,102 -58,151l113 0 -54 -151zm61 320l0 -18c39,-5 44,-11 36,-35 -9,-24 -20,-54 -33,-89l-134 0c-10,28 -18,51 -26,75 -13,37 -8,44 39,49l0 18 -137 0 0 -18c40,-6 49,-10 71,-64l130 -316 21 -6c40,108 80,215 121,322 20,53 28,60 69,64l0 18 -157 0z"/>
  <path class="fil0" d="M8170 3494c-36,2 -51,11 -54,36 -1,17 -4,41 -4,96l0 48c0,71 -11,124 -47,161 -29,30 -71,43 -114,43 -38,0 -74,-8 -102,-30 -38,-28 -56,-74 -56,-147l0 -144c0,-56 -6,-59 -55,-63l0 -18 167 0 0 18c-49,3 -54,6 -54,63l0 132c0,100 41,155 117,155 88,0 118,-71 118,-172l0 -46c0,-55 -2,-79 -5,-98 -3,-23 -17,-31 -60,-34l0 -18 149 0 0 18z"/>
  <path class="fil0" d="M8677 3573c-7,-30 -14,-46 -21,-56 -11,-15 -21,-19 -69,-19l-42 0 0 295c0,48 5,55 64,59l0 18 -183 0 0 -18c56,-4 62,-10 62,-59l0 -295 -36 0c-54,0 -67,6 -75,19 -8,10 -13,28 -21,56l-19 0c3,-39 6,-79 7,-113l13 0c9,16 17,16 36,16l251 0c17,0 22,-4 32,-16l13 0c0,28 3,75 7,111l-19 2z"/>
  <path class="fil0" d="M9257 3494c-43,4 -52,12 -76,49 -27,42 -47,74 -77,129 -10,17 -11,24 -11,40l0 80c0,52 4,56 62,60l0 18 -180 0 0 -18c55,-4 60,-8 60,-60l0 -77c0,-13 -3,-19 -13,-37 -20,-35 -43,-74 -78,-132 -25,-41 -32,-49 -69,-52l0 -18 153 0 0 18c-44,6 -42,13 -31,33 26,47 56,96 83,142 22,-39 57,-100 74,-136 13,-28 11,-35 -37,-39l0 -18 140 0 0 18z"/>
  <path class="fil0" d="M10766 3494c-52,4 -57,7 -57,58l0 241c0,52 6,55 57,59l0 18 -172 0 0 -18c53,-4 58,-7 58,-59l0 -118 -213 0 0 118c0,51 5,55 57,59l0 18 -169 0 0 -18c50,-4 54,-7 54,-59l0 -241c0,-51 -4,-54 -56,-58l0 -18 167 0 0 18c-48,4 -53,7 -53,58l0 96 213 0 0 -96c0,-51 -5,-54 -54,-58l0 -18 168 0 0 18z"/>
  <path class="fil0" d="M11147 3489c-69,0 -135,57 -135,172 0,111 65,195 155,195 69,0 133,-55 133,-172 0,-128 -71,-195 -152,-195l-1 0zm14 -23c109,0 208,80 208,201 0,131 -98,212 -216,212 -117,0 -209,-86 -209,-203 0,-109 82,-210 217,-210l0 0z"/>
  <path class="fil0" d="M11884 3573c-6,-30 -13,-46 -21,-56 -10,-15 -21,-19 -68,-19l-43 0 0 295c0,48 6,55 65,59l0 18 -184 0 0 -18c57,-4 62,-10 62,-59l0 -295 -36 0c-54,0 -67,6 -75,19 -8,10 -13,28 -21,56l-19 0c3,-39 6,-79 7,-113l14 0c9,16 17,16 35,16l251 0c17,0 23,-4 32,-16l14 0c0,28 3,75 6,111l-19 2z"/>
  <path class="fil0" d="M12397 3771c-4,23 -16,79 -21,99l-304 0 0 -18c56,-4 61,-10 61,-59l0 -238c0,-55 -5,-57 -53,-61l0 -18 281 0c0,15 3,56 5,89l-19 3c-5,-25 -12,-39 -20,-53 -9,-13 -26,-17 -69,-17l-46 0c-20,0 -21,2 -21,20l0 136 56 0c56,0 60,-5 68,-46l19 0 0 119 -19 0c-9,-45 -13,-48 -68,-48l-56 0 0 111c0,29 3,43 15,50 12,7 35,7 63,7 45,0 64,-4 78,-20 11,-13 22,-34 31,-58l19 2z"/>
  <path class="fil0" d="M12875 3772c-4,21 -17,79 -24,98l-285 0 0 -18c53,-4 58,-8 58,-61l0 -238c0,-52 -4,-56 -56,-59l0 -18 168 0 0 18c-49,3 -54,6 -54,59l0 236c0,33 3,45 14,51 12,7 33,8 58,8 32,0 54,-4 69,-19 11,-12 23,-32 33,-61l19 4z"/>
  <path class="fil0" d="M5553 3694l-42 -75 -42 -85 -44 86 -45 76c-8,16 -19,32 -19,50 0,49 48,89 106,89 59,0 106,-40 106,-89 0,-19 -8,-35 -20,-52z"/>
  <path class="fil0" d="M9921 3694l-42 -75 -42 -85 -43 86 -46 76c-8,16 -18,32 -18,50 0,49 47,89 106,89 58,0 106,-40 106,-89 0,-19 -9,-35 -21,-52z"/>
  <path class="fil0" d="M646 1389l-4 0c-66,167 -131,339 -193,502l378 0 -181 -502zm203 1064l0 -58c128,-18 146,-36 118,-117 -29,-80 -66,-181 -110,-296l-442 0c-35,92 -62,170 -89,250 -44,123 -27,146 129,163l0 58 -455 0 0 -58c134,-21 163,-35 236,-214l432 -1051 72 -18c132,357 264,715 401,1069 66,178 95,200 228,214l0 58 -520 0z"/>
  <path class="fil0" d="M5053 1203c-120,7 -172,38 -180,120 -6,57 -13,138 -13,320l0 158c0,238 -38,413 -158,537 -97,98 -237,142 -379,142 -127,0 -247,-27 -339,-98 -127,-93 -187,-246 -187,-489l0 -480c0,-186 -18,-196 -181,-210l0 -60 553 0 0 60c-162,10 -179,22 -179,210l0 439c0,332 139,514 389,514 292,0 393,-234 393,-569l0 -154c0,-182 -6,-262 -16,-325 -12,-77 -58,-105 -200,-115l0 -60 497 0 0 60z"/>
  <path class="fil0" d="M5934 1389l-4 0c-66,167 -131,339 -193,502l377 0 -180 -502zm202 1064l0 -58c129,-18 147,-36 119,-117 -29,-80 -66,-181 -110,-296l-442 0c-35,92 -62,170 -89,250 -44,123 -27,146 129,163l0 58 -455 0 0 -58c134,-21 163,-35 236,-214l432 -1051 72 -18c132,357 264,715 401,1069 66,178 95,200 228,214l0 58 -521 0z"/>
  <path class="fil0" d="M10543 2128c-14,68 -57,263 -77,325l-951 0 0 -58c177,-13 194,-26 194,-203l0 -790c0,-175 -13,-188 -184,-199l0 -60 558 0 0 60c-163,11 -182,22 -182,199l0 783c0,111 10,149 48,170 40,22 110,26 192,26 108,0 181,-12 228,-65 39,-38 77,-104 112,-201l62 13z"/>
  <path class="fil0" d="M10960 2453l0 -58c168,-13 186,-25 186,-198l0 -795c0,-175 -18,-188 -186,-199l0 -60 562 0 0 60c-167,11 -185,24 -185,199l0 795c0,173 18,185 185,198l0 58 -562 0z"/>
  <path class="fil0" d="M12889 1455c-18,-80 -32,-124 -62,-164 -36,-56 -80,-74 -233,-74l-150 0c-65,0 -70,6 -70,66l0 471 206 0c189,0 200,-19 226,-150l61 0 0 397 -62 0c-25,-141 -36,-163 -225,-163l-206 0 0 352c0,179 18,191 206,205l0 58 -580 0 0 -58c164,-13 182,-26 182,-205l0 -787c0,-178 -18,-189 -176,-200l0 -60 923 0c2,74 12,202 22,303l-62 9z"/>
  <path class="fil0" d="M14483 2126c-13,76 -53,262 -71,327l-1011 0 0 -58c186,-14 204,-33 204,-199l0 -789c0,-184 -18,-190 -178,-204l0 -60 934 0c3,52 11,186 19,299l-63 8c-20,-84 -42,-131 -68,-175 -30,-44 -87,-58 -228,-58l-153 0c-68,0 -72,6 -72,66l0 452 189 0c184,0 198,-17 224,-153l62 0 0 395 -62 0c-29,-147 -44,-158 -224,-158l-189 0 0 371c0,95 11,140 50,165 40,23 117,23 210,23 150,0 212,-13 259,-66 36,-43 75,-113 105,-194l63 8z"/>
  <path class="fil0" d="M2410 2400c-246,-49 -427,-296 -427,-636 0,-375 216,-576 452,-576 285,0 510,240 510,654 0,328 -167,506 -328,550 -9,3 -16,5 -30,13 -21,9 -47,14 -75,21l-102 -26zm1312 44c0,0 -128,-40 -134,35 -5,76 -75,95 -156,137 -81,43 -455,38 -765,-96 -35,-7 -61,-25 -64,-40 40,-16 46,-9 84,-31 249,-75 484,-309 484,-663 0,-405 -323,-674 -684,-674 -457,0 -730,331 -730,707 0,198 90,371 218,488 135,122 321,169 443,173 3,0 6,0 9,0 -18,10 -36,18 -50,22 -64,18 -255,-23 -296,0 -40,23 -87,99 238,64 0,0 122,-23 191,35 70,58 597,330 957,209 359,-122 255,-366 255,-366z"/>
  <path class="fil0" d="M7898 2468c2,0 3,0 5,0 -2,0 -3,0 -5,0z"/>
  <path class="fil0" d="M8769 1740c0,-160 -70,-286 -167,-428l-345 -613 -342 -699 -354 703 -375 627c-66,130 -151,258 -151,410 0,375 337,684 771,724 10,1 20,1 30,1 -4,0 -9,0 -14,-1 -361,-33 -643,-290 -643,-603 0,-127 71,-233 126,-342l313 -522 295 -586 285 583 288 510c80,119 138,224 138,357 0,222 -142,415 -353,521 3,-1 5,-4 8,-6 -5,3 -10,6 -14,8 14,-10 28,-20 41,-32 166,-152 237,-282 207,-456 -8,-63 -333,-564 -351,-608 -17,-44 -242,-401 -239,-485 -22,94 -259,587 -390,799 89,-89 298,-320 411,-558 0,0 116,169 166,279 51,111 85,138 67,269 -1,2 -3,4 -4,7 0,3 0,6 -1,9 -5,6 -13,26 -17,38 0,10 2,28 7,45 9,29 120,106 120,106 0,0 24,21 18,28 -2,2 -4,5 -7,7 1,2 1,3 0,5 -14,16 -50,40 -64,58 0,2 0,4 1,6 8,15 16,32 28,32 12,0 34,21 19,33 -1,1 -1,1 -2,2 -1,2 -2,5 -4,7 -8,6 -16,11 -21,16 -2,3 -3,7 -3,11 0,18 24,51 24,51 0,0 12,19 -6,32 -3,5 -8,9 -18,13 -8,3 -17,7 -23,13 -6,8 -7,17 0,28 14,24 29,95 9,116 -7,6 -13,11 -20,15 -17,12 -37,17 -71,27 -44,11 -222,0 -222,0 0,0 -38,6 -35,32 3,26 -32,134 -32,134 2,1 25,4 61,5 0,0 0,0 -1,0l0 0c1,0 1,0 1,0 22,0 50,0 79,-1 49,-4 106,-12 163,-30 355,-92 613,-369 613,-697z"/>
  <path class="fil0" d="M7905 2517c-429,0 -786,-135 -860,-313 -10,22 -15,45 -15,69 0,167 244,308 585,361 -65,20 -226,72 -257,90 492,-49 723,117 819,173 95,56 138,33 271,29 133,-4 151,-85 128,-105 -26,-23 -11,-8 -63,-45 -46,-33 -173,-109 -246,-155 303,-60 514,-193 514,-348 0,-24 -5,-47 -15,-69 -75,178 -431,313 -861,313z"/>
 </g>
</svg>
